<svg width="14" height="14" viewBox="0 0 14 14" fill="none" xmlns="http://www.w3.org/2000/svg">
<path d="M13 12.0013V7.25863C13 6.92867 12.9334 6.60218 12.8041 6.29915C12.6748 5.99612 12.4857 5.72294 12.2482 5.49634L7.8244 1.27362C7.6016 1.06087 7.30661 0.942322 7 0.942322C6.69339 0.942322 6.3984 1.06087 6.1756 1.27362L1.7518 5.49634C1.51433 5.72294 1.32517 5.99612 1.1959 6.29915C1.06663 6.60218 0.999965 6.92867 1 7.25863V12.0013C1 12.3228 1.12643 12.631 1.35147 12.8583C1.57652 13.0856 1.88174 13.2133 2.2 13.2133H11.8C12.1183 13.2133 12.4235 13.0856 12.6485 12.8583C12.8736 12.631 13 12.3228 13 12.0013Z" fill="#A9DFD8" stroke="#A9DFD8" stroke-width="1.2" stroke-linecap="round" stroke-linejoin="round"/>
</svg>
