<svg width="12" height="13" viewBox="0 0 12 13" fill="none" xmlns="http://www.w3.org/2000/svg">
<mask id="path-1-inside-1_1_352" fill="white">
<path d="M5.52845 0.603972C6.73984 0.505222 7.95167 0.789134 9.0036 1.41814C10.0555 2.04715 10.898 2.9916 11.4194 4.12652C11.9409 5.26144 12.1168 6.53333 11.9239 7.7739C11.731 9.01447 11.1784 10.1652 10.3391 11.0739C9.49986 11.9826 8.41357 12.6064 7.22397 12.8627C6.03438 13.119 4.79755 12.9958 3.67716 12.5094C2.55677 12.0229 1.60562 11.1962 0.949575 10.1385C0.293533 9.08088 -0.0364815 7.84219 0.00320144 6.58636C0.00757751 6.4321 0.0710375 6.28595 0.179621 6.18007C0.288204 6.07419 0.433017 6.01725 0.582201 6.02178C0.731385 6.0263 0.872721 6.09192 0.975116 6.2042C1.07751 6.31648 1.13258 6.46622 1.1282 6.62048C1.09019 7.80925 1.45993 8.97362 2.17202 9.90771C2.88412 10.8418 3.89271 11.4854 5.01944 11.7248C6.14618 11.9642 7.31848 11.7839 8.32905 11.2157C9.33962 10.6476 10.1234 9.72831 10.5417 8.62034C10.96 7.51238 10.986 6.28714 10.615 5.16128C10.2441 4.03542 9.50002 3.08147 8.51449 2.46811C7.52897 1.85475 6.36544 1.62148 5.22964 1.80957C4.09384 1.99765 3.05895 2.59497 2.30795 3.4959L2.15495 3.689H3.5627L3.6392 3.69443C3.7744 3.71296 3.89849 3.78165 3.98837 3.88772C4.07825 3.99379 4.1278 4.13001 4.1278 4.27103C4.1278 4.41206 4.07825 4.54828 3.98837 4.65435C3.89849 4.76042 3.7744 4.82911 3.6392 4.84764L3.5627 4.85229H0.939201L0.862701 4.84764C0.740978 4.83033 0.628082 4.77229 0.541269 4.68238C0.454455 4.59247 0.398499 4.47564 0.381951 4.34975L0.376701 4.27065V1.16855L0.381951 1.09023C0.398499 0.964333 0.454455 0.847505 0.541269 0.757597C0.628082 0.667689 0.740978 0.609646 0.862701 0.592339L0.939201 0.587686L1.0157 0.592339C1.13742 0.609646 1.25032 0.667689 1.33713 0.757597C1.42395 0.847505 1.4799 0.964333 1.49645 1.09023L1.5017 1.16855L1.50095 2.68315C2.53049 1.47435 3.97537 0.728438 5.52845 0.603972ZM5.81195 3.689L5.88845 3.69443C6.01017 3.71174 6.12307 3.76978 6.20988 3.85969C6.29669 3.9496 6.35265 4.06643 6.3692 4.19232L6.37445 4.27065V6.78877L7.68695 6.78955L7.76345 6.79497C7.89808 6.81413 8.02146 6.88304 8.11076 6.98896C8.20007 7.09489 8.24928 7.23066 8.24928 7.37119C8.24928 7.51172 8.20007 7.64749 8.11076 7.75342C8.02146 7.85934 7.89808 7.92825 7.76345 7.9474L7.68695 7.95283H5.81195L5.73545 7.9474C5.61383 7.93014 5.50102 7.87221 5.41422 7.78245C5.32742 7.6927 5.2714 7.57604 5.2547 7.45029L5.24945 7.37041V4.27065L5.2547 4.19232C5.27125 4.06643 5.3272 3.9496 5.41402 3.85969C5.50083 3.76978 5.61373 3.71174 5.73545 3.69443L5.81195 3.68978V3.689Z"/>
</mask>
<path d="M5.52845 0.603972C6.73984 0.505222 7.95167 0.789134 9.0036 1.41814C10.0555 2.04715 10.898 2.9916 11.4194 4.12652C11.9409 5.26144 12.1168 6.53333 11.9239 7.7739C11.731 9.01447 11.1784 10.1652 10.3391 11.0739C9.49986 11.9826 8.41357 12.6064 7.22397 12.8627C6.03438 13.119 4.79755 12.9958 3.67716 12.5094C2.55677 12.0229 1.60562 11.1962 0.949575 10.1385C0.293533 9.08088 -0.0364815 7.84219 0.00320144 6.58636C0.00757751 6.4321 0.0710375 6.28595 0.179621 6.18007C0.288204 6.07419 0.433017 6.01725 0.582201 6.02178C0.731385 6.0263 0.872721 6.09192 0.975116 6.2042C1.07751 6.31648 1.13258 6.46622 1.1282 6.62048C1.09019 7.80925 1.45993 8.97362 2.17202 9.90771C2.88412 10.8418 3.89271 11.4854 5.01944 11.7248C6.14618 11.9642 7.31848 11.7839 8.32905 11.2157C9.33962 10.6476 10.1234 9.72831 10.5417 8.62034C10.96 7.51238 10.986 6.28714 10.615 5.16128C10.2441 4.03542 9.50002 3.08147 8.51449 2.46811C7.52897 1.85475 6.36544 1.62148 5.22964 1.80957C4.09384 1.99765 3.05895 2.59497 2.30795 3.4959L2.15495 3.689H3.5627L3.6392 3.69443C3.7744 3.71296 3.89849 3.78165 3.98837 3.88772C4.07825 3.99379 4.1278 4.13001 4.1278 4.27103C4.1278 4.41206 4.07825 4.54828 3.98837 4.65435C3.89849 4.76042 3.7744 4.82911 3.6392 4.84764L3.5627 4.85229H0.939201L0.862701 4.84764C0.740978 4.83033 0.628082 4.77229 0.541269 4.68238C0.454455 4.59247 0.398499 4.47564 0.381951 4.34975L0.376701 4.27065V1.16855L0.381951 1.09023C0.398499 0.964333 0.454455 0.847505 0.541269 0.757597C0.628082 0.667689 0.740978 0.609646 0.862701 0.592339L0.939201 0.587686L1.0157 0.592339C1.13742 0.609646 1.25032 0.667689 1.33713 0.757597C1.42395 0.847505 1.4799 0.964333 1.49645 1.09023L1.5017 1.16855L1.50095 2.68315C2.53049 1.47435 3.97537 0.728438 5.52845 0.603972ZM5.81195 3.689L5.88845 3.69443C6.01017 3.71174 6.12307 3.76978 6.20988 3.85969C6.29669 3.9496 6.35265 4.06643 6.3692 4.19232L6.37445 4.27065V6.78877L7.68695 6.78955L7.76345 6.79497C7.89808 6.81413 8.02146 6.88304 8.11076 6.98896C8.20007 7.09489 8.24928 7.23066 8.24928 7.37119C8.24928 7.51172 8.20007 7.64749 8.11076 7.75342C8.02146 7.85934 7.89808 7.92825 7.76345 7.9474L7.68695 7.95283H5.81195L5.73545 7.9474C5.61383 7.93014 5.50102 7.87221 5.41422 7.78245C5.32742 7.6927 5.2714 7.57604 5.2547 7.45029L5.24945 7.37041V4.27065L5.2547 4.19232C5.27125 4.06643 5.3272 3.9496 5.41402 3.85969C5.50083 3.76978 5.61373 3.71174 5.73545 3.69443L5.81195 3.68978V3.689Z" fill="#87888C"/>
<path d="M0.00320144 6.58636L1.20261 6.62426L1.20272 6.62039L0.00320144 6.58636ZM1.1282 6.62048L2.3276 6.65883L2.32772 6.65451L1.1282 6.62048ZM2.30795 3.4959L1.3862 2.72754L1.37665 2.73899L1.36739 2.75068L2.30795 3.4959ZM2.15495 3.689L1.21439 2.94379L-0.326831 4.889H2.15495V3.689ZM3.5627 3.689L3.64765 2.49201L3.60523 2.489H3.5627V3.689ZM3.6392 3.69443L3.80211 2.50554L3.76326 2.50022L3.72415 2.49744L3.6392 3.69443ZM3.6392 4.84764L3.71205 6.04542L3.75725 6.04267L3.80211 6.03653L3.6392 4.84764ZM3.5627 4.85229V6.05229H3.59916L3.63555 6.05008L3.5627 4.85229ZM0.939201 4.85229L0.86635 6.05008L0.902742 6.05229H0.939201V4.85229ZM0.862701 4.84764L0.693779 6.03569L0.741619 6.04249L0.78985 6.04542L0.862701 4.84764ZM0.381951 4.34975L-0.815415 4.42922L-0.812854 4.4678L-0.807815 4.50614L0.381951 4.34975ZM0.376701 4.27065H-0.823299V4.31042L-0.820665 4.35011L0.376701 4.27065ZM0.376701 1.16855L-0.820612 1.0883L-0.823299 1.12838V1.16855H0.376701ZM0.381951 1.09023L-0.807815 0.933838L-0.812803 0.971786L-0.815362 1.00997L0.381951 1.09023ZM0.862701 0.592339L0.789845 -0.605447L0.741616 -0.602514L0.693779 -0.595712L0.862701 0.592339ZM0.939201 0.587686L1.01206 -0.6101L0.939201 -0.614532L0.866345 -0.6101L0.939201 0.587686ZM1.0157 0.592339L1.18462 -0.595712L1.13679 -0.602514L1.08856 -0.605447L1.0157 0.592339ZM1.49645 1.09023L2.69376 1.00998L2.6912 0.971787L2.68622 0.933838L1.49645 1.09023ZM1.5017 1.16855L2.7017 1.16915L2.70172 1.12868L2.69901 1.0883L1.5017 1.16855ZM1.50095 2.68315L0.300951 2.68256L0.299335 5.94469L2.41451 3.46123L1.50095 2.68315ZM5.81195 3.689L5.8969 2.49201L4.61195 2.40082V3.689H5.81195ZM5.88845 3.69443L6.05737 2.50638L6.01554 2.50043L5.9734 2.49744L5.88845 3.69443ZM6.3692 4.19232L7.56651 4.11207L7.56395 4.07388L7.55896 4.03593L6.3692 4.19232ZM6.37445 4.27065H7.57445V4.23048L7.57176 4.1904L6.37445 4.27065ZM6.37445 6.78877H5.17445V7.98806L6.37374 7.98877L6.37445 6.78877ZM7.68695 6.78955L7.77189 5.59256L7.72983 5.58957L7.68766 5.58955L7.68695 6.78955ZM7.76345 6.79497L7.93247 5.60694L7.89059 5.60098L7.84839 5.59798L7.76345 6.79497ZM7.76345 7.9474L7.84839 9.14439L7.89059 9.1414L7.93247 9.13544L7.76345 7.9474ZM7.68695 7.95283V9.15283H7.72947L7.77189 9.14982L7.68695 7.95283ZM5.81195 7.95283L5.72701 9.14982L5.76942 9.15283H5.81195V7.95283ZM5.73545 7.9474L5.56676 9.13549L5.60848 9.14141L5.65051 9.14439L5.73545 7.9474ZM5.2547 7.45029L4.05728 7.52899L4.0599 7.56876L4.06514 7.60826L5.2547 7.45029ZM5.24945 7.37041H4.04945V7.40981L4.05203 7.44911L5.24945 7.37041ZM5.24945 4.27065L4.05214 4.1904L4.04945 4.23048V4.27065H5.24945ZM5.2547 4.19232L4.06493 4.03593L4.05994 4.07388L4.05739 4.11207L5.2547 4.19232ZM5.73545 3.69443L5.66259 2.49665L5.61436 2.49958L5.56653 2.50638L5.73545 3.69443ZM5.81195 3.68978L5.8848 4.88757L7.01195 4.81901V3.68978H5.81195ZM5.62595 1.8C6.58581 1.72176 7.54855 1.94625 8.38776 2.44806L9.61945 0.38822C8.3548 -0.367982 6.89387 -0.711315 5.43095 -0.592061L5.62595 1.8ZM8.38776 2.44806C9.22754 2.95021 9.90666 3.70831 10.329 4.62753L12.5098 3.6255C11.8893 2.27489 10.8835 1.14408 9.61945 0.38822L8.38776 2.44806ZM10.329 4.62753C10.7516 5.54712 10.8951 6.58053 10.7382 7.58952L13.1097 7.95829C13.3386 6.48614 13.1302 4.97576 12.5098 3.6255L10.329 4.62753ZM10.7382 7.58952C10.5813 8.59836 10.1326 9.52889 9.45757 10.2597L11.2206 11.8881C12.2241 10.8016 12.8807 9.43058 13.1097 7.95829L10.7382 7.58952ZM9.45757 10.2597C8.78301 10.9901 7.91504 11.4862 6.97121 11.6896L7.47673 14.0358C8.9121 13.7265 10.2167 12.9751 11.2206 11.8881L9.45757 10.2597ZM6.97121 11.6896C6.02773 11.8929 5.04636 11.7956 4.15506 11.4086L3.19925 13.6101C4.54874 14.196 6.04102 14.3451 7.47673 14.0358L6.97121 11.6896ZM4.15506 11.4086C3.26322 11.0214 2.49922 10.3603 1.96933 9.50599L-0.0701769 10.7711C0.712015 12.0321 1.85031 13.0244 3.19925 13.6101L4.15506 11.4086ZM1.96933 9.50599C1.43916 8.65128 1.17031 7.64619 1.2026 6.62426L-1.1962 6.54846C-1.24327 8.03819 -0.852098 9.51049 -0.0701769 10.7711L1.96933 9.50599ZM1.20272 6.62039C1.19843 6.77161 1.13632 6.92326 1.01738 7.03923L-0.658142 5.32091C-0.99424 5.64864 -1.18327 6.09259 -1.19632 6.55233L1.20272 6.62039ZM1.01738 7.03923C0.897072 7.15655 0.727999 7.22675 0.54582 7.22123L0.618582 4.82233C0.138034 4.80775 -0.320663 4.99184 -0.658142 5.32091L1.01738 7.03923ZM0.54582 7.22123C0.363789 7.2157 0.200445 7.1356 0.088459 7.0128L1.86177 5.3956C1.545 5.04824 1.09898 4.8369 0.618582 4.82233L0.54582 7.22123ZM0.088459 7.0128C-0.0222728 6.89138 -0.0756042 6.73759 -0.0713166 6.58645L2.32772 6.65451C2.34076 6.19485 2.17729 5.74158 1.86177 5.3956L0.088459 7.0128ZM-0.0711863 6.58213C-0.117893 8.04298 0.335985 9.47863 1.21771 10.6352L3.12634 9.1802C2.58387 8.46861 2.29828 7.57551 2.32759 6.65883L-0.0711863 6.58213ZM1.21771 10.6352C2.10008 11.7927 3.35653 12.5983 4.77007 12.8986L5.26881 10.551C4.42888 10.3726 3.66816 9.89092 3.12634 9.1802L1.21771 10.6352ZM4.77007 12.8986C6.18422 13.199 7.65401 12.9719 8.9171 12.2618L7.741 10.1697C6.98294 10.5959 6.10813 10.7293 5.26881 10.551L4.77007 12.8986ZM8.9171 12.2618C10.1791 11.5523 11.1488 10.4097 11.6643 9.04422L9.41906 8.19647C9.09796 9.0469 8.5001 9.74296 7.741 10.1697L8.9171 12.2618ZM11.6643 9.04422C12.1797 7.67931 12.2115 6.17192 11.7548 4.78573L9.47532 5.53683C9.76051 6.40236 9.74038 7.34544 9.41906 8.19647L11.6643 9.04422ZM11.7548 4.78573C11.2978 3.39902 10.3783 2.21463 9.14857 1.44931L7.88042 3.48691C8.62179 3.94831 9.19029 4.67182 9.47532 5.53683L11.7548 4.78573ZM9.14857 1.44931C7.91783 0.683334 6.45958 0.389552 5.03359 0.625692L5.42569 2.99345C6.27129 2.85342 7.14011 3.02616 7.88042 3.48691L9.14857 1.44931ZM5.03359 0.625692C3.6081 0.861751 2.31765 1.61013 1.3862 2.72754L3.2297 4.26426C3.80024 3.57981 4.57959 3.13356 5.42569 2.99345L5.03359 0.625692ZM1.36739 2.75068L1.21439 2.94379L3.09551 4.43422L3.24851 4.24112L1.36739 2.75068ZM2.15495 4.889H3.5627V2.489H2.15495V4.889ZM3.47775 4.88599L3.55425 4.89142L3.72415 2.49744L3.64765 2.49201L3.47775 4.88599ZM3.47629 4.88332C3.31225 4.86084 3.17036 4.77855 3.07286 4.6635L4.90388 3.11193C4.62662 2.78474 4.23656 2.56507 3.80211 2.50554L3.47629 4.88332ZM3.07286 4.6635C2.97619 4.54942 2.9278 4.40966 2.9278 4.27103H5.3278C5.3278 3.85036 5.18031 3.43815 4.90388 3.11193L3.07286 4.6635ZM2.9278 4.27103C2.9278 4.13241 2.97619 3.99264 3.07286 3.87856L4.90388 5.43014C5.18031 5.10392 5.3278 4.69171 5.3278 4.27103H2.9278ZM3.07286 3.87856C3.17035 3.76351 3.31224 3.68122 3.47629 3.65875L3.80211 6.03653C4.23656 5.97699 4.62663 5.75733 4.90388 5.43014L3.07286 3.87856ZM3.56635 3.64985L3.48985 3.6545L3.63555 6.05008L3.71205 6.04542L3.56635 3.64985ZM3.5627 3.65229H0.939201V6.05229H3.5627V3.65229ZM1.01205 3.6545L0.935551 3.64985L0.78985 6.04542L0.86635 6.05008L1.01205 3.6545ZM1.03162 3.65958C1.17905 3.68055 1.30912 3.75003 1.40452 3.84884L-0.321985 5.51592C-0.052956 5.79454 0.302909 5.98011 0.693779 6.03569L1.03162 3.65958ZM1.40452 3.84884C1.49931 3.947 1.55534 4.06877 1.57172 4.19336L-0.807815 4.50614C-0.758343 4.88251 -0.590399 5.23794 -0.321985 5.51592L1.40452 3.84884ZM1.57932 4.27028L1.57407 4.19118L-0.820665 4.35011L-0.815415 4.42922L1.57932 4.27028ZM1.5767 4.27065V1.16855H-0.823299V4.27065H1.5767ZM1.57401 1.2488L1.57926 1.17048L-0.815362 1.00997L-0.820612 1.0883L1.57401 1.2488ZM1.57172 1.24661C1.55534 1.3712 1.49931 1.49297 1.40452 1.59114L-0.321985 -0.0759454C-0.590399 0.202036 -0.758343 0.557462 -0.807815 0.933838L1.57172 1.24661ZM1.40452 1.59114C1.30912 1.68994 1.17905 1.75943 1.03162 1.78039L0.693779 -0.595712C0.30291 -0.540137 -0.0529552 -0.354564 -0.321985 -0.0759454L1.40452 1.59114ZM0.935557 1.79013L1.01206 1.78547L0.866345 -0.6101L0.789845 -0.605447L0.935557 1.79013ZM0.866345 1.78547L0.942845 1.79013L1.08856 -0.605447L1.01206 -0.6101L0.866345 1.78547ZM0.846779 1.78039C0.699357 1.75943 0.569282 1.68994 0.473879 1.59114L2.20039 -0.0759454C1.93136 -0.354565 1.57549 -0.540137 1.18462 -0.595712L0.846779 1.78039ZM0.473879 1.59114C0.379092 1.49297 0.323061 1.3712 0.306685 1.24661L2.68622 0.933838C2.63674 0.557462 2.4688 0.202036 2.20039 -0.0759454L0.473879 1.59114ZM0.299137 1.17047L0.304387 1.2488L2.69901 1.0883L2.69376 1.00998L0.299137 1.17047ZM0.301701 1.16796L0.300951 2.68256L2.70095 2.68374L2.7017 1.16915L0.301701 1.16796ZM2.41451 3.46123C3.24212 2.48952 4.39519 1.89864 5.62431 1.80014L5.43259 -0.592193C3.55556 -0.441766 1.81885 0.459188 0.587392 1.90507L2.41451 3.46123ZM5.727 4.88599L5.8035 4.89142L5.9734 2.49744L5.8969 2.49201L5.727 4.88599ZM5.71953 4.88248C5.57211 4.86152 5.44203 4.79204 5.34663 4.69323L7.07313 3.02615C6.8041 2.74753 6.44824 2.56196 6.05737 2.50638L5.71953 4.88248ZM5.34663 4.69323C5.25184 4.59507 5.19581 4.47329 5.17943 4.34871L7.55896 4.03593C7.50949 3.65956 7.34155 3.30413 7.07313 3.02615L5.34663 4.69323ZM5.17188 4.27257L5.17713 4.3509L7.57176 4.1904L7.56651 4.11207L5.17188 4.27257ZM5.17445 4.27065V6.78877H7.57445V4.27065H5.17445ZM6.37374 7.98877L7.68624 7.98955L7.68766 5.58955L6.37516 5.58877L6.37374 7.98877ZM7.60201 7.98654L7.67851 7.99196L7.84839 5.59798L7.77189 5.59256L7.60201 7.98654ZM7.59442 7.98301C7.43113 7.95978 7.29015 7.8773 7.19334 7.76248L9.02819 6.21545C8.75276 5.88877 8.36503 5.66848 7.93247 5.60694L7.59442 7.98301ZM7.19334 7.76248C7.09733 7.64861 7.04927 7.50934 7.04927 7.37119H9.44928C9.44928 6.95199 9.30282 6.54116 9.02819 6.21545L7.19334 7.76248ZM7.04927 7.37119C7.04927 7.23304 7.09733 7.09377 7.19334 6.9799L9.02819 8.52693C9.30282 8.20121 9.44928 7.79039 9.44928 7.37119H7.04927ZM7.19334 6.9799C7.29015 6.86507 7.43113 6.7826 7.59442 6.75937L7.93247 9.13544C8.36503 9.0739 8.75276 8.8536 9.02819 8.52693L7.19334 6.9799ZM7.67851 6.75041L7.60201 6.75584L7.77189 9.14982L7.84839 9.14439L7.67851 6.75041ZM7.68695 6.75283H5.81195V9.15283H7.68695V6.75283ZM5.89689 6.75584L5.82039 6.75041L5.65051 9.14439L5.72701 9.14982L5.89689 6.75584ZM5.90414 6.75932C6.05143 6.78023 6.18142 6.84959 6.27683 6.94824L4.55162 8.61666C4.82062 8.89482 5.17624 9.08004 5.56676 9.13549L5.90414 6.75932ZM6.27683 6.94824C6.37162 7.04625 6.42773 7.16786 6.44426 7.29233L4.06514 7.60826C4.11507 7.98423 4.28323 8.33914 4.55162 8.61666L6.27683 6.94824ZM6.45212 7.37159L6.44687 7.29171L4.05203 7.44911L4.05728 7.52899L6.45212 7.37159ZM6.44945 7.37041V4.27065H4.04945V7.37041H6.44945ZM6.44676 4.3509L6.45201 4.27257L4.05739 4.11207L4.05214 4.1904L6.44676 4.3509ZM6.44447 4.34871C6.42809 4.47329 6.37206 4.59507 6.27727 4.69323L4.55076 3.02615C4.28235 3.30413 4.1144 3.65956 4.06493 4.03593L6.44447 4.34871ZM6.27727 4.69323C6.18187 4.79204 6.05179 4.86152 5.90437 4.88248L5.56653 2.50638C5.17566 2.56196 4.81979 2.74753 4.55076 3.02615L6.27727 4.69323ZM5.8083 4.89222L5.8848 4.88757L5.73909 2.49199L5.66259 2.49665L5.8083 4.89222ZM7.01195 3.68978V3.689H4.61195V3.68978H7.01195Z" fill="#87888C" mask="url(#path-1-inside-1_1_352)"/>
</svg>
