<svg width="14" height="16" viewBox="0 0 14 16" fill="none" xmlns="http://www.w3.org/2000/svg">
<g style="mix-blend-mode:darken">
<rect y="0.729248" width="14" height="14.3162" fill="#87888C"/>
</g>
<path d="M2.2 7.20562V12.6594H4.6V7.20562H2.2ZM5.8 3.11528V12.6594H8.2V3.11528H5.8ZM9.4 8.56906V12.6594H11.8V8.56906H9.4ZM11.8 14.0228H2.2C1.87 14.0228 1.5876 13.8895 1.3528 13.6227C1.1176 13.3554 1 13.0343 1 12.6594V7.20562C1 6.83067 1.1176 6.50958 1.3528 6.24234C1.5876 5.97556 1.87 5.84217 2.2 5.84217H4.6V3.11528C4.6 2.74033 4.7176 2.41924 4.9528 2.152C5.1876 1.88522 5.47 1.75183 5.8 1.75183H8.2C8.53 1.75183 8.8126 1.88522 9.0478 2.152C9.2826 2.41924 9.4 2.74033 9.4 3.11528V7.20562H11.8C12.13 7.20562 12.4126 7.33901 12.6478 7.60579C12.8826 7.87302 13 8.19412 13 8.56906V12.6594C13 13.0343 12.8826 13.3554 12.6478 13.6227C12.4126 13.8895 12.13 14.0228 11.8 14.0228Z" fill="#87888C"/>
</svg>
