<svg width="14" height="14" viewBox="0 0 14 14" fill="none" xmlns="http://www.w3.org/2000/svg">
<path d="M8.2 3.64901V2.3797C8.19999 2.1874 8.16555 1.99721 8.09886 1.82112C8.03217 1.64504 7.93467 1.4869 7.81253 1.35669C7.69039 1.22649 7.54627 1.12706 7.38927 1.06468C7.23227 1.0023 7.0658 0.978339 6.9004 0.994299L2.1004 1.45726C1.80043 1.4862 1.52081 1.6447 1.31698 1.90131C1.11315 2.15793 1.00001 2.49392 1 2.84265V11.4067C1.00001 11.7554 1.11315 12.0914 1.31698 12.348C1.52081 12.6046 1.80043 12.7631 2.1004 12.7921L6.9004 13.2557C7.06585 13.2717 7.23237 13.2477 7.38941 13.1853C7.54645 13.1229 7.6906 13.0234 7.81275 12.8931C7.9349 12.7628 8.03238 12.6046 8.09904 12.4284C8.1657 12.2523 8.20008 12.062 8.2 11.8696V10.6003M7.6 7.12466H13H7.6ZM13 7.12466L11.0002 4.34414L13 7.12466ZM13 7.12466L11.0002 9.90519L13 7.12466Z" stroke="#87888C" stroke-width="1.2" stroke-linecap="round" stroke-linejoin="round"/>
</svg>
