<svg width="14" height="14" viewBox="0 0 14 14" fill="none" xmlns="http://www.w3.org/2000/svg">
<path d="M1.54985 5.37169C1.57717 5.06418 1.73174 4.77725 1.98276 4.56804C2.23378 4.35883 2.56284 4.24269 2.9044 4.24275H11.0956C11.4372 4.24269 11.7662 4.35883 12.0172 4.56804C12.2683 4.77725 12.4228 5.06418 12.4502 5.37169L12.9956 11.5072C13.0106 11.676 12.9868 11.8459 12.9256 12.006C12.8643 12.1661 12.7671 12.313 12.6399 12.4375C12.5127 12.562 12.3584 12.6613 12.1866 12.7293C12.0148 12.7973 11.8293 12.8324 11.6418 12.8325H2.35823C2.17069 12.8324 1.98519 12.7973 1.81341 12.7293C1.64163 12.6613 1.48729 12.562 1.36011 12.4375C1.23293 12.313 1.13567 12.1661 1.07444 12.006C1.01321 11.8459 0.989351 11.676 1.00435 11.5072L1.54985 5.37169V5.37169Z" stroke="#87888C" stroke-linecap="round" stroke-linejoin="round"/>
<path d="M9.7167 6.08331V3.01555C9.7167 2.36466 9.43041 1.74042 8.92083 1.28017C8.41124 0.819915 7.72009 0.561348 6.99943 0.561348C6.27877 0.561348 5.58762 0.819915 5.07803 1.28017C4.56845 1.74042 4.28217 2.36466 4.28217 3.01555V6.08331" stroke="#87888C" stroke-linecap="round" stroke-linejoin="round"/>
</svg>
