<svg width="12" height="13" viewBox="0 0 12 13" fill="none" xmlns="http://www.w3.org/2000/svg">
<path d="M6 6.48262C6.79565 6.48262 7.55871 6.15941 8.12132 5.58409C8.68393 5.00878 9 4.22848 9 3.41486C9 2.60124 8.68393 1.82095 8.12132 1.24563C7.55871 0.670316 6.79565 0.347107 6 0.347107C5.20435 0.347107 4.44129 0.670316 3.87868 1.24563C3.31607 1.82095 3 2.60124 3 3.41486C3 4.22848 3.31607 5.00878 3.87868 5.58409C4.44129 6.15941 5.20435 6.48262 6 6.48262ZM8 3.41486C8 3.95727 7.78929 4.47747 7.41421 4.86101C7.03914 5.24456 6.53043 5.46003 6 5.46003C5.46957 5.46003 4.96086 5.24456 4.58579 4.86101C4.21071 4.47747 4 3.95727 4 3.41486C4 2.87245 4.21071 2.35225 4.58579 1.96871C4.96086 1.58516 5.46957 1.36969 6 1.36969C6.53043 1.36969 7.03914 1.58516 7.41421 1.96871C7.78929 2.35225 8 2.87245 8 3.41486ZM12 11.5955C12 12.6181 11 12.6181 11 12.6181H1C1 12.6181 0 12.6181 0 11.5955C0 10.573 1 7.5052 6 7.5052C11 7.5052 12 10.573 12 11.5955ZM11 11.5914C10.999 11.3399 10.846 10.5832 10.168 9.88987C9.516 9.22314 8.289 8.52779 6 8.52779C3.71 8.52779 2.484 9.22314 1.832 9.88987C1.154 10.5832 1.002 11.3399 1 11.5914H11Z" fill="#87888C"/>
</svg>
