<svg width="14" height="14" viewBox="0 0 14 14" fill="none" xmlns="http://www.w3.org/2000/svg">
<path fill-rule="evenodd" clip-rule="evenodd" d="M1 0.965836H1.75V12.4699H13V13.2369H1V0.965836ZM12.1128 3.35332C12.1509 3.38523 12.1825 3.42451 12.2058 3.46892C12.2291 3.51334 12.2436 3.56201 12.2484 3.61215C12.2533 3.66229 12.2485 3.71293 12.2342 3.76116C12.2199 3.80939 12.1965 3.85427 12.1652 3.89324L8.79025 8.1114C8.75708 8.15281 8.7158 8.18665 8.66906 8.21076C8.62233 8.23486 8.57118 8.2487 8.5189 8.25137C8.46662 8.25404 8.41438 8.24549 8.36552 8.22628C8.31667 8.20706 8.2723 8.17759 8.23525 8.13978L6.295 6.15571L3.553 10.0111C3.49302 10.0891 3.4058 10.1403 3.30969 10.1539C3.21357 10.1675 3.11604 10.1425 3.03758 10.0841C2.95912 10.0257 2.90585 9.93852 2.88896 9.84081C2.87207 9.7431 2.89287 9.6425 2.947 9.56015L5.947 5.34199C5.97884 5.29713 6.01982 5.25987 6.0671 5.23277C6.11438 5.20566 6.16684 5.18936 6.22088 5.18499C6.27491 5.18061 6.32923 5.18827 6.38009 5.20743C6.43096 5.22659 6.47715 5.2568 6.5155 5.29597L8.47225 7.29768L11.5848 3.407C11.616 3.368 11.6544 3.33567 11.6978 3.31187C11.7412 3.28806 11.7888 3.27324 11.8379 3.26825C11.8869 3.26327 11.9364 3.26821 11.9836 3.28281C12.0308 3.29741 12.0746 3.32136 12.1128 3.35332Z" fill="#87888C" stroke="#87888C" stroke-width="0.5"/>
</svg>
