<svg width="14" height="14" viewBox="0 0 14 14" fill="none" xmlns="http://www.w3.org/2000/svg">
<path d="M5.2852 13.0463C4.29282 12.7311 3.39405 12.1479 2.6764 11.3535C2.9073 11.0622 3.05124 10.7041 3.0898 10.3253C3.12835 9.94639 3.05977 9.56389 2.89283 9.22672C2.72589 8.88954 2.46819 8.61303 2.15269 8.43255C1.83719 8.25208 1.47825 8.17585 1.1218 8.21364C1.0406 7.79046 0.999789 7.35965 1 6.92775C1 6.2607 1.096 5.61728 1.2748 5.01279H1.3C1.60593 5.0129 1.90683 4.93005 2.1743 4.77207C2.44177 4.61409 2.66698 4.38619 2.82866 4.10989C2.99034 3.83359 3.08316 3.51801 3.09836 3.19295C3.11355 2.86789 3.05062 2.54407 2.9155 2.25207C3.61888 1.55529 4.46952 1.04879 5.3956 0.775322C5.54631 1.09014 5.77595 1.35447 6.05911 1.53905C6.34227 1.72364 6.66791 1.82129 7 1.82121C7.33209 1.82129 7.65773 1.72364 7.94089 1.53905C8.22405 1.35447 8.45369 1.09014 8.6044 0.775322C9.53048 1.04879 10.3811 1.55529 11.0845 2.25207C10.9484 2.54611 10.8855 2.8724 10.9019 3.1997C10.9182 3.527 11.0133 3.84436 11.1779 4.12139C11.3426 4.39843 11.5713 4.62587 11.8422 4.78194C12.1131 4.93802 12.4171 5.0175 12.7252 5.01279C12.9079 5.63251 13.0006 6.27827 13 6.92775C13 7.36818 12.958 7.79841 12.8782 8.21364C12.5217 8.17585 12.1628 8.25208 11.8473 8.43255C11.5318 8.61303 11.2741 8.88954 11.1072 9.22672C10.9402 9.56389 10.8716 9.94639 10.9102 10.3253C10.9488 10.7041 11.0927 11.0622 11.3236 11.3535C10.6059 12.1479 9.70718 12.7311 8.7148 13.0463C8.59826 12.6599 8.36941 12.3229 8.06123 12.0837C7.75304 11.8446 7.38145 11.7157 7 11.7157C6.61855 11.7157 6.24695 11.8446 5.93877 12.0837C5.63059 12.3229 5.40173 12.6599 5.2852 13.0463Z" stroke="#87888C" stroke-width="1.2" stroke-linejoin="round"/>
</svg>
