<svg width="421" height="126" viewBox="0 0 421 126" fill="none" xmlns="http://www.w3.org/2000/svg">
<path d="M6.46017 112.5L0.466797 124.5L420.502 125.5V50.5L412.012 83.5L403.022 62.5L391.534 75.5L382.045 100.5L375.552 80L362.566 73L357.572 62.5L347.583 80.5L333.099 73L316.118 15.5L305.13 29.5L286.65 33L271.167 22L266.672 13.5L258.681 31L246.694 19L237.205 29L226.717 72L211.234 22L199.247 13.5L194.252 2.49998L190.756 13L180.767 23L165.784 11L161.788 -1.52588e-05L150.801 63L143.808 53.5L135.817 80L121.833 84.5L111.844 74L103.852 80.5L88.869 73L81.3773 25.5L70.3895 86L53.4082 121.5H39.4237L30.4336 115L24.4403 121.5L18.4469 116L14.4513 122L6.46017 112.5Z" fill="url(#paint0_linear_1_219)"/>
<defs>
<linearGradient id="paint0_linear_1_219" x1="211.234" y1="-10" x2="210.233" y2="122.5" gradientUnits="userSpaceOnUse">
<stop stop-color="#A9DFD8"/>
<stop offset="1" stop-color="#A9DFD8" stop-opacity="0.01"/>
</linearGradient>
</defs>
</svg>
