<svg width="12" height="13" viewBox="0 0 12 13" fill="none" xmlns="http://www.w3.org/2000/svg">
<path d="M3.36842 10.4779L3.80437 10.7165C4.47943 11.0855 5.23329 11.278 5.99876 11.2768H6.00076C6.92362 11.2768 7.82576 10.9969 8.59309 10.4726C9.36042 9.94833 9.95849 9.20313 10.3117 8.33126C10.6648 7.45939 10.7572 6.5 10.5772 5.57443C10.3971 4.64886 9.95273 3.79867 9.30017 3.13137C8.64761 2.46406 7.81619 2.00963 6.91106 1.82552C6.00593 1.64141 5.06774 1.7359 4.21512 2.09704C3.36251 2.45818 2.63377 3.06975 2.12105 3.85442C1.60834 4.63908 1.33468 5.56159 1.33468 6.5053V6.50734C1.3335 7.29009 1.52173 8.06099 1.88261 8.75129L2.11591 9.19708L1.75729 10.8446L3.36842 10.4779ZM0.00151179 12.64L0.706756 9.39408C0.218782 8.45923 -0.0240634 7.41106 0.00188082 6.35171C0.027825 5.29235 0.321674 4.25793 0.854798 3.34924C1.38792 2.44054 2.14214 1.68855 3.04397 1.16654C3.94579 0.644526 4.96447 0.370295 6.00076 0.370562C7.59185 0.370562 9.11779 1.0169 10.2429 2.16738C11.3679 3.31787 12 4.87826 12 6.5053C12.0003 7.56498 11.7321 8.60667 11.2216 9.52886C10.7111 10.4511 9.97574 11.2223 9.08711 11.7675C8.19848 12.3126 7.18691 12.6131 6.15095 12.6397C5.11499 12.6662 4.08998 12.4179 3.17578 11.9189L0.00151179 12.64Z" fill="#87888C"/>
</svg>
