<svg width="14" height="15" viewBox="0 0 14 15" fill="none" xmlns="http://www.w3.org/2000/svg">
<path d="M6.4445 1.57264C6.63649 1.04903 7.36306 1.04903 7.55565 1.57264L8.79759 5.12996C8.84092 5.24584 8.91721 5.34541 9.01641 5.41553C9.1156 5.48564 9.23302 5.523 9.35317 5.52267H12.4052C12.9692 5.52267 13.2152 6.24853 12.7718 6.60401L10.5999 8.62463C10.5026 8.70197 10.4315 8.80918 10.3968 8.93089C10.3621 9.0526 10.3656 9.18255 10.4067 9.3021L11.1999 12.7781C11.3931 13.3365 10.7679 13.8161 10.2951 13.4724L7.34506 11.5367C7.24403 11.4633 7.12355 11.4239 7.00007 11.4239C6.87659 11.4239 6.75612 11.4633 6.65509 11.5367L3.70502 13.4724C3.23284 13.8161 2.60707 13.3359 2.80026 12.7781L3.59342 9.3021C3.63457 9.18255 3.63804 9.0526 3.60333 8.93089C3.56862 8.80918 3.49752 8.70197 3.40023 8.62463L1.22833 6.60401C0.784349 6.24853 1.03154 5.52267 1.59431 5.52267H4.64638C4.76655 5.52309 4.88401 5.48576 4.98321 5.41564C5.08242 5.34551 5.1587 5.24589 5.20195 5.12996L6.4439 1.57264H6.4445Z" stroke="#87888C" stroke-width="1.19995" stroke-linecap="round" stroke-linejoin="round"/>
</svg>
